<svg id="svg_logo_path" width="203" height="61" viewBox="0 0 203 61" fill="none" xmlns="http://www.w3.org/2000/svg">
    <g clip-path="url(#clip0)">
        <path id="svg_logo_path_1" d="M31.3385 36.6867C29.1381 36.6867 27.2712 34.9858 27.1045 32.7512C27.0044 31.6173 27.3712 30.5167 28.1046 29.6829C28.8381 28.8491 29.8716 28.3155 31.0051 28.2154C33.3388 28.0487 35.3725 29.783 35.5392 32.1176C35.6392 33.2515 35.2725 34.3521 34.539 35.1859C33.8056 36.053 32.7721 36.5533 31.6385 36.6534C31.5385 36.6867 31.4385 36.6867 31.3385 36.6867ZM29.1048 32.6178C29.2048 33.8518 30.2716 34.7857 31.5052 34.6856C32.1053 34.6523 32.6387 34.3521 33.0388 33.9185C33.4388 33.4516 33.6055 32.8846 33.5722 32.2843C33.4722 31.0503 32.4053 30.1165 31.1718 30.2165C30.5717 30.2499 30.0383 30.55 29.6382 30.9836C29.2381 31.4505 29.0714 32.0175 29.1048 32.6178Z" fill="url(#paint0_linear)"/>
        <path id="svg_logo_path_2" d="M44.3073 29.6828C40.5067 29.6828 37.6729 28.1487 36.2727 27.2148C34.7724 26.1809 32.0053 23.8797 30.7051 19.8775C29.5382 16.3756 30.0717 13.2739 30.4717 11.7397C31.2718 8.77141 32.8054 6.77031 33.6722 5.83647C35.1058 4.26895 36.6394 3.40181 37.2728 3.03494C38.1063 2.56802 38.9398 2.20115 39.7066 1.96769C40.5067 1.73423 41.1401 1.63417 41.4068 1.60082C49.2081 0.533572 53.8756 0.26676 53.9089 0.26676C55.1424 0.200057 56.4093 0.133354 57.6762 0.100002L58.643 0.0666504L58.8097 2.93488V2.96824C58.7764 7.73751 58.6097 14.1077 58.2429 17.4762C58.2096 17.7763 58.1429 18.2099 58.0429 18.7769C57.3761 21.8452 55.7425 24.0131 54.8424 25.047C53.7422 26.281 52.3753 27.3482 50.9084 28.1153C49.5415 28.8157 47.3745 29.6828 44.6074 29.7495C44.474 29.6828 44.374 29.6828 44.3073 29.6828ZM56.776 2.06774C55.8425 2.1011 54.9424 2.13445 54.0089 2.20115C53.9756 2.20115 49.3748 2.46796 41.6736 3.53521C41.4402 3.56856 40.9401 3.63527 40.3067 3.83538C39.6732 4.03549 39.0065 4.33565 38.3063 4.73587C37.7062 5.06938 36.4394 5.80312 35.1725 7.17053C34.439 7.97097 33.1055 9.70525 32.4387 12.24C32.072 13.574 31.6386 16.2422 32.6387 19.2438C33.7723 22.679 36.1393 24.6801 37.4395 25.5806C38.6731 26.4144 41.2068 27.7818 44.574 27.7151C46.9411 27.6817 48.8081 26.9147 49.9749 26.3143C51.2418 25.6473 52.4086 24.7468 53.3421 23.6796C54.1089 22.8124 55.5092 20.9447 56.0759 18.31C56.1759 17.7763 56.2426 17.3761 56.2426 17.2094C56.6093 13.9409 56.776 7.67081 56.8094 2.93488L56.776 2.06774Z" fill="url(#paint1_linear)"/>
        <path id="svg_logo_path_3" d="M44.0406 22.7123C42.507 22.7123 41.0401 22.2454 39.7733 21.3449C38.1397 20.211 37.0395 18.4767 36.7061 16.5089C36.3727 14.5412 36.8061 12.5401 37.9396 10.9059C39.0731 9.27164 40.8068 8.17104 42.7738 7.83753C46.8411 7.13714 50.7084 9.83862 51.4418 13.9075C51.7752 15.8753 51.3418 17.8763 50.2083 19.5106C49.0748 21.1448 47.3412 22.2454 45.3742 22.5789C44.9074 22.679 44.474 22.7123 44.0406 22.7123ZM38.6397 16.1754C38.9064 17.6095 39.7066 18.8769 40.9068 19.7107C42.107 20.5445 43.5739 20.878 45.0074 20.6112C46.441 20.3444 47.7079 19.5439 48.5414 18.3433C49.3748 17.1426 49.7082 15.6751 49.4415 14.241C48.9081 11.2727 46.0743 9.27164 43.1071 9.80527C41.6736 10.0721 40.4067 10.8725 39.5732 12.0732C38.7398 13.3072 38.4064 14.7413 38.6397 16.1754Z" fill="url(#paint2_linear)"/>
        <path id="svg_logo_path_4" d="M1.33355 34.6189H14.6357C15.5359 34.7857 16.0026 35.2526 16.0026 36.0197V36.2531C16.0026 37.0536 15.4692 37.4871 14.4357 37.6205H11.1018C10.235 37.6205 9.5349 38.3209 9.5349 39.1881V54.2296C9.5349 54.9967 9.06816 55.4303 8.10133 55.597H8.00131C7.20118 55.597 6.7011 55.1301 6.53441 54.1629V39.1881C6.53441 38.3209 5.83429 37.6205 4.96748 37.6205H1.46691C0.500082 37.4204 0 36.9202 0 36.053C0.200033 35.1192 0.666776 34.6189 1.33355 34.6189Z" fill="#43BEA8"/>
        <path id="svg_logo_path_5" d="M17.9363 39.6217C18.0363 39.6217 18.1363 39.6217 18.203 39.6551C19.0698 39.8886 19.4699 40.3221 19.4699 40.9558V41.0892C20.6367 39.9886 22.1703 39.4216 24.0373 39.4216C25.0041 39.4216 26.0376 39.6551 27.1378 40.1554C27.2712 40.2221 27.3712 40.2888 27.4379 40.3888C27.7712 40.789 27.9046 41.1559 27.9046 41.5228V41.6228C27.7379 42.6234 27.2712 43.0903 26.471 43.0903H26.3377C25.3708 42.7568 24.6707 42.59 24.204 42.59H23.9706C22.037 42.59 20.6367 43.5572 19.7033 45.525C19.6699 45.5583 19.6699 45.5917 19.6699 45.625C19.5032 46.1253 19.4032 46.7256 19.4032 47.3927V53.6961C19.4032 54.4632 18.9365 54.9301 17.9696 55.0969H17.8696C17.0695 55.0969 16.6027 54.6299 16.4027 53.6627V41.2893C16.6027 40.2221 17.1028 39.6884 17.9363 39.6217Z" fill="#43BEA8"/>
        <path id="svg_logo_path_6" d="M31.0384 39.7883C30.1049 39.7883 29.6048 40.322 29.4714 41.3892V53.6626C29.6381 54.6298 30.1382 55.0967 30.9383 55.0967H31.005C31.9718 54.9299 32.4386 54.463 32.4386 53.7293V41.1224C32.4719 40.4554 31.9718 40.0218 31.0384 39.7883Z" fill="#43BEA8"/>
        <path id="svg_logo_path_7" d="M42.3736 40.022C44.3739 40.022 46.2075 40.7557 47.8078 42.1898C47.8411 42.2232 47.8412 42.2232 47.8745 42.2565C49.4414 43.824 50.2082 45.5917 50.2082 47.5594C50.2082 50.361 48.8413 52.5622 46.0742 54.1964C46.0409 54.2297 46.0075 54.2297 45.9742 54.2297C44.774 54.7967 43.6071 55.0969 42.4736 55.0969H42.0402C40.74 55.0969 39.6065 54.8301 38.6396 54.3298C38.1062 54.0296 37.4394 54.3965 37.4394 55.0302V59.7327C37.4394 60.3998 36.9394 60.8333 35.9725 61.0335C35.2057 61.0335 34.6723 60.5665 34.4723 59.6327V48.0263C34.4723 44.2243 36.3393 41.6896 40.0732 40.3555C40.54 40.2221 41.2734 40.0887 42.2736 40.022C42.3069 40.022 42.3402 40.022 42.3736 40.022ZM37.4394 45.8585V46.0253C37.4394 47.1926 38.3063 48.0931 40.0399 48.7267C40.64 48.9268 41.3067 49.0269 42.0402 49.0269H42.3736C44.2072 49.0269 45.6074 48.4266 46.5743 47.1926C46.6076 47.1592 46.6076 47.1259 46.641 47.0925C46.841 46.7256 46.941 46.3588 46.941 45.9919V45.8251C46.941 44.8579 46.2742 44.0575 44.9073 43.3571C44.1072 42.9903 43.1737 42.8235 42.1736 42.8235C40.1732 42.8235 38.7063 43.4905 37.7728 44.8579C37.7395 44.8913 37.7395 44.9247 37.7062 44.958C37.5061 45.3249 37.4394 45.5917 37.4394 45.8585Z" fill="#43BEA8"/>
        <path id="svg_logo_path_8" d="M59.8765 40.022C61.8768 40.022 63.7105 40.7557 65.3107 42.1898C65.3441 42.2232 65.3441 42.2232 65.3774 42.2565C66.9443 43.824 67.7111 45.5917 67.7111 47.5594C67.7111 50.361 66.3442 52.5622 63.5771 54.1964C63.5438 54.2297 63.5104 54.2297 63.4771 54.2297C62.2769 54.7967 61.11 55.0969 59.9765 55.0969H59.5431C58.2429 55.0969 57.1094 54.8301 56.1426 54.3298C55.6091 54.0296 54.9424 54.3965 54.9424 55.0302V59.7327C54.9424 60.3998 54.4423 60.8333 53.4755 61.0335C52.7087 61.0335 52.1753 60.5665 51.9752 59.6327V48.0263C51.9752 44.2243 53.8422 41.6896 57.5761 40.3555C58.0429 40.2221 58.7763 40.0887 59.7765 40.022C59.8098 40.022 59.8765 40.022 59.8765 40.022ZM54.9757 45.8585V46.0253C54.9757 47.1926 55.8425 48.0931 57.5761 48.7267C58.1762 48.9268 58.843 49.0269 59.5765 49.0269H59.9099C61.7435 49.0269 63.1437 48.4266 64.1105 47.1926C64.1439 47.1592 64.1439 47.1259 64.1772 47.0925C64.3773 46.7256 64.4773 46.3588 64.4773 45.9919V45.8251C64.4773 44.8579 63.8105 44.0575 62.4436 43.3571C61.6435 42.9903 60.71 42.8235 59.7098 42.8235C57.7095 42.8235 56.2426 43.4905 55.3091 44.8579C55.2758 44.8913 55.2758 44.9247 55.2424 44.958C55.0424 45.3249 54.9757 45.5917 54.9757 45.8585Z" fill="#43BEA8"/>
        <path id="svg_logo_path_9" d="M74.0788 48.0929C75.9791 43.4904 77.0459 40.9223 77.3793 40.3887C77.4127 40.322 77.446 40.2886 77.5127 40.2219C77.8127 40.0218 78.0794 39.8884 78.3795 39.8884C78.4462 39.8884 78.4795 39.8884 78.5462 39.8884C79.413 40.0552 79.8464 40.5221 79.8464 41.2225C79.8131 41.5227 78.1795 45.5582 74.9123 53.2958C73.4787 56.831 72.6119 58.8655 72.3118 59.3991C72.2785 59.4658 72.2118 59.5325 72.1451 59.5659C71.9451 59.6993 71.7117 59.7993 71.445 59.8994C71.345 59.9327 71.245 59.9327 71.145 59.8994C70.2782 59.6659 69.8448 59.2657 69.8448 58.632V58.3986C69.8448 58.2318 70.5449 56.4308 71.9784 52.9956C72.0451 52.8622 72.0451 52.7288 71.9784 52.5954L67.3444 41.3225V41.2558C67.5111 40.3553 68.0111 39.8884 68.7779 39.8884C69.5447 39.8884 70.1448 40.6222 70.6116 42.123V42.1563C71.7451 44.7911 72.5452 46.7589 73.112 48.0596C73.2787 48.5265 73.9121 48.5265 74.0788 48.0929Z" fill="#43BEA8"/>
        <path id="svg_logo_path_10" d="M88.5812 34.1521H101.883C102.784 34.3189 103.25 34.7858 103.25 35.5529V35.7863C103.25 36.5868 102.717 37.0203 101.683 37.1537H98.4162C97.516 37.1537 96.7826 37.8875 96.7826 38.788V53.7295C96.7826 54.4965 96.3158 54.9301 95.349 55.0969H95.2823C94.4822 55.0969 93.9821 54.6299 93.8154 53.6628V38.788C93.8154 37.8875 93.082 37.1537 92.1818 37.1537H88.7812C87.8144 36.9536 87.3143 36.4534 87.3143 35.5862C87.481 34.619 87.9144 34.1521 88.5812 34.1521Z" fill="#43BEA8"/>
        <path id="svg_logo_path_11" d="M105.351 39.6217C106.284 39.8552 106.751 40.2888 106.751 40.9558V41.0892C107.918 39.9886 109.451 39.4216 111.318 39.4216C112.318 39.4216 113.419 39.6884 114.619 40.2221C115.019 40.6556 115.219 41.0892 115.219 41.5228V41.6228C115.052 42.6234 114.585 43.0903 113.785 43.0903H113.685C112.718 42.7568 112.018 42.59 111.552 42.59H111.318C109.385 42.59 107.951 43.5906 107.051 45.5583C106.851 46.0919 106.751 46.6923 106.751 47.3593V53.6961C106.751 54.4632 106.284 54.9301 105.317 55.0969H105.217C104.417 55.0969 103.95 54.6299 103.75 53.6627V41.2893C103.884 40.1554 104.417 39.6217 105.351 39.6217Z" fill="#43BEA8"/>
        <path id="svg_logo_path_12" d="M123.287 40.8557C126.121 40.8557 128.321 42.1564 129.855 44.7578C130.388 45.7917 130.655 46.8923 130.655 48.093V47.8262C130.655 47.8262 130.055 49.2603 129.255 49.1269H120.12C119.42 49.1269 119.02 49.9607 119.486 50.461C119.853 50.8945 120.353 51.2614 120.987 51.5949C121.02 51.6283 121.087 51.6283 121.12 51.6616C121.82 51.9284 122.487 52.0618 123.12 52.0618C123.787 52.0618 125.354 51.7283 125.721 51.6283C125.787 51.6283 125.854 51.5949 125.887 51.5949H126.387C127.221 51.7617 127.654 52.1952 127.654 52.8956V53.029C127.654 54.0629 126.321 54.7633 123.62 55.0968H123.254C120.62 55.0968 118.519 53.9295 116.953 51.5616C116.919 51.5282 116.919 51.4949 116.886 51.4615C116.252 50.3609 115.952 49.1936 115.952 47.9596C115.952 45.3582 117.219 43.2904 119.72 41.7562C119.753 41.7229 119.786 41.7229 119.82 41.6895C121.087 41.1225 122.22 40.8557 123.287 40.8557ZM119.886 46.0919H126.321C126.988 46.0919 127.354 45.3582 127.021 44.8245C126.888 44.6244 126.721 44.391 126.521 44.1242C126.487 44.0908 126.454 44.0241 126.387 43.9908C125.387 43.0569 124.42 42.59 123.454 42.59H122.887C121.387 42.59 120.186 43.3237 119.22 44.7578C119.22 44.7912 119.186 44.7912 119.186 44.8245C119.186 44.8245 119.186 44.8245 119.186 44.8579C118.886 45.4249 119.286 46.0919 119.886 46.0919Z" fill="#43BEA8"/>
        <path id="svg_logo_path_13" d="M135.822 48.0596C135.422 48.3264 135.189 48.76 135.189 49.2603V53.696C135.189 54.4631 134.722 54.8967 133.755 55.0634H133.655C132.922 55.0634 132.422 54.6299 132.188 53.7627V35.5194C132.388 34.5856 132.855 34.1187 133.555 34.1187H133.822C134.755 34.3188 135.189 34.7523 135.189 35.386V42.2898C135.189 43.4237 136.456 44.1241 137.423 43.4904C140.656 41.3226 142.623 40.0219 143.357 39.6217H143.724C144.39 39.6217 144.824 39.9885 145.057 40.6889C145.19 41.0891 145.124 41.556 144.857 41.8896C144.557 42.2564 144.057 42.6567 143.324 43.0569C143.29 43.0902 143.257 43.0902 143.224 43.1236C142.157 43.8573 141.29 44.4576 140.656 44.8912C139.99 45.3581 139.856 46.292 140.356 46.9256L145.09 53.029L145.19 53.4959V53.6293C145.024 54.5632 144.557 55.0301 143.757 55.0301H143.657C143.09 55.0301 142.39 54.3631 141.49 53.0623C141.49 53.029 141.457 53.029 141.457 52.9956L137.756 48.3264C137.256 47.7928 136.456 47.6594 135.822 48.0596Z" fill="#43BEA8"/>
        <path id="svg_logo_path_14" d="M151.292 48.0596C150.891 48.3264 150.658 48.76 150.658 49.2603V53.696C150.658 54.4631 150.191 54.8967 149.225 55.0634H149.124C148.391 55.0634 147.891 54.6299 147.658 53.7627V35.5194C147.858 34.5856 148.324 34.1187 149.024 34.1187H149.291C150.225 34.3188 150.658 34.7523 150.658 35.386V42.2898C150.658 43.4237 151.925 44.1241 152.892 43.4904C156.126 41.3226 158.093 40.0219 158.826 39.6217H159.193C159.86 39.6217 160.293 39.9885 160.526 40.6889C160.66 41.0891 160.593 41.556 160.326 41.8896C160.026 42.2564 159.526 42.6567 158.793 43.0569C158.759 43.0902 158.726 43.0902 158.693 43.1236C157.626 43.8573 156.759 44.4576 156.126 44.8912C155.459 45.3581 155.326 46.292 155.826 46.9256L160.56 53.029L160.66 53.4959V53.6293C160.493 54.5632 160.026 55.0301 159.226 55.0301H159.126C158.559 55.0301 157.859 54.3631 156.959 53.0623C156.959 53.029 156.926 53.029 156.926 52.9956L153.225 48.3264C152.725 47.7928 151.892 47.6594 151.292 48.0596Z" fill="#43BEA8"/>
        <path id="svg_logo_path_15" d="M168.661 40.8557C171.495 40.8557 173.695 42.1564 175.229 44.7578C175.762 45.7917 176.029 46.8923 176.029 48.093V47.8262C176.029 47.8262 175.529 49.2603 174.729 49.1269H165.427C164.794 49.1269 164.46 49.8606 164.86 50.3609C165.26 50.8278 165.794 51.2614 166.461 51.6283C166.494 51.6616 166.561 51.6616 166.594 51.695C167.294 51.9618 167.961 52.0952 168.594 52.0952C169.328 52.0952 171.295 51.6283 171.295 51.6283H171.762C172.595 51.795 173.028 52.2286 173.028 52.929V53.0624C173.028 54.0963 171.695 54.7967 168.994 55.1302H168.628C165.994 55.1302 163.894 53.9629 162.327 51.5949C162.293 51.5616 162.293 51.5282 162.26 51.5282C161.627 50.4276 161.326 49.2603 161.326 48.0263C161.326 45.4249 162.593 43.3571 165.094 41.8229C165.127 41.7896 165.16 41.7896 165.194 41.7562C166.461 41.1225 167.594 40.8557 168.661 40.8557ZM165.26 46.0919H171.962C172.528 46.0919 172.895 45.4582 172.595 44.958C172.428 44.7245 172.228 44.4243 171.995 44.1242C171.962 44.0908 171.928 44.0241 171.895 43.9908C170.895 43.0569 169.895 42.59 168.928 42.59H168.361C166.861 42.59 165.661 43.3237 164.694 44.7912C164.694 44.8245 164.66 44.8245 164.66 44.8579C164.627 44.8913 164.594 44.958 164.594 44.9913C164.327 45.4916 164.694 46.0919 165.26 46.0919Z" fill="#43BEA8"/>
        <path id="svg_logo_path_16" d="M179.63 39.6217C180.563 39.8552 181.03 40.2888 181.03 40.9558V41.0892C182.197 39.9886 183.73 39.4216 185.597 39.4216C186.597 39.4216 187.697 39.6884 188.898 40.2221C189.298 40.6556 189.498 41.0892 189.498 41.5228V41.6228C189.331 42.6234 188.864 43.0903 188.064 43.0903H187.931C186.964 42.7568 186.264 42.59 185.797 42.59H185.564C183.63 42.59 182.197 43.5906 181.296 45.5583C181.096 46.0919 180.996 46.6923 180.996 47.3593V53.6961C180.996 54.4632 180.53 54.9301 179.563 55.0969H179.463C178.663 55.0969 178.196 54.6299 177.996 53.6627V41.2893C178.163 40.1554 178.696 39.6217 179.63 39.6217Z" fill="#43BEA8"/>
        <path id="svg_logo_path_17" d="M199.566 49.9941C199.566 49.794 199.366 49.6939 198.999 49.6606C194.232 48.5933 191.698 47.9263 191.398 47.6261C190.431 46.8924 189.931 45.9919 189.931 44.8913C189.931 43.4572 190.931 42.0898 192.898 40.7891C192.965 40.7557 193.032 40.7224 193.098 40.689C194.199 40.122 195.265 39.8552 196.332 39.8552C198.766 39.8552 200.733 40.9225 202.2 43.0903C202.333 43.2904 202.433 43.5572 202.467 43.8241V43.9575V44.0575C202.467 44.0575 202.1 45.3249 201.166 45.4583C200.566 45.4583 200.033 45.0581 199.499 44.291C199.433 44.1576 199.333 44.0575 199.233 43.9575C198.433 43.2237 197.499 42.8569 196.466 42.8569C195.032 42.8569 193.898 43.5239 193.098 44.8913L193.065 45.0247C193.065 45.1915 193.432 45.3249 194.165 45.3916C194.232 45.3916 194.332 45.4249 194.399 45.4249C197.766 46.2254 199.833 46.759 200.633 46.9925C200.866 47.0592 201.066 47.1592 201.266 47.326C202.267 48.2265 203 49.9607 203 49.9607V49.894C203 51.5283 201.866 53.0291 199.566 54.3298C199.499 54.3632 199.433 54.3965 199.333 54.4299C198.333 54.8634 197.299 55.0635 196.232 55.0635C193.898 55.0635 191.931 53.9629 190.331 51.7951C190.131 51.4949 190.031 51.2281 190.031 50.9613V50.7278C190.031 49.9607 190.531 49.5272 191.565 49.4271C192.031 49.4271 192.598 49.8607 193.198 50.7278C193.265 50.8279 193.365 50.9279 193.465 51.028C194.265 51.7284 195.165 52.0619 196.232 52.0619C197.532 52.0619 198.633 51.4616 199.499 50.2276L199.566 49.9941Z" fill="#43BEA8"/>
    </g>
    <defs>
        <linearGradient id="paint0_linear" x1="28.3408" y1="35.4506" x2="34.3375" y2="29.4562" gradientUnits="userSpaceOnUse">
            <stop stop-color="#43BEA8"/>
            <stop offset="0.3788" stop-color="#41B8A1"/>
            <stop offset="0.9987" stop-color="#006838"/>
        </linearGradient>
        <linearGradient id="paint1_linear" x1="29.9862" y1="14.8357" x2="58.8074" y2="14.8357" gradientUnits="userSpaceOnUse">
            <stop offset="0.2562" stop-color="#43BEA8"/>
            <stop offset="0.5333" stop-color="#41B8A1"/>
            <stop offset="1" stop-color="#006838"/>
        </linearGradient>
        <linearGradient id="paint2_linear" x1="39.367" y1="21.0595" x2="48.8405" y2="9.47875" gradientUnits="userSpaceOnUse">
            <stop stop-color="#43BEA8"/>
            <stop offset="0.9987" stop-color="#006838"/>
        </linearGradient>
        <clipPath id="clip0">
            <rect width="203" height="61" fill="white"/>
        </clipPath>
    </defs>
</svg>
