<?xml version="1.0" standalone="no"?>
<!DOCTYPE svg PUBLIC "-//W3C//DTD SVG 20010904//EN"
 "http://www.w3.org/TR/2001/REC-SVG-20010904/DTD/svg10.dtd">
<svg version="1.0" xmlns="http://www.w3.org/2000/svg"
 width="177.000000pt" height="177.000000pt" viewBox="0 0 177.000000 177.000000"
 preserveAspectRatio="xMidYMid meet">
<metadata>
Created by potrace 1.14, written by Peter Selinger 2001-2017
</metadata>
<g transform="translate(0.000000,177.000000) scale(0.100000,-0.100000)"
fill="#000000" stroke="none">
<path d="M1327 1713 c-1 -1 -39 -4 -84 -8 -45 -3 -91 -8 -103 -10 -12 -2 -51
-7 -88 -10 -37 -3 -78 -8 -92 -10 -14 -2 -47 -6 -75 -10 -27 -3 -66 -8 -85
-11 -119 -17 -230 -75 -329 -174 -154 -152 -218 -391 -161 -600 11 -41 21 -81
22 -87 1 -7 5 -13 10 -13 4 0 8 -7 8 -16 0 -8 7 -22 16 -31 8 -9 12 -23 9 -31
-3 -9 -3 -13 1 -10 4 4 23 -14 42 -40 20 -26 40 -49 44 -50 5 -2 6 -8 2 -13
-3 -5 2 -9 10 -9 8 0 18 -9 21 -20 3 -11 11 -20 16 -20 6 0 7 6 3 13 -4 6 4 1
18 -13 13 -14 22 -29 20 -33 -2 -5 4 -7 14 -5 12 2 18 -2 16 -10 -1 -8 1 -11
6 -8 4 3 34 -8 65 -24 31 -16 57 -26 57 -22 0 4 10 -4 21 -18 16 -19 19 -20
15 -6 -5 15 -4 17 7 8 8 -7 18 -8 22 -4 5 4 6 2 2 -3 -3 -6 3 -16 14 -23 10
-7 19 -8 19 -3 0 5 -6 12 -12 14 -7 3 -1 4 15 3 15 -2 30 -6 35 -11 4 -4 1 -5
-5 -1 -7 4 -13 2 -13 -3 0 -14 13 -14 27 0 8 8 17 5 33 -11 l23 -23 -7 29 c-5
24 -4 26 5 11 9 -15 13 -16 26 -5 14 11 15 10 8 -12 l-8 -25 23 25 c15 17 20
20 16 7 -5 -16 -4 -16 19 -1 23 15 25 15 31 0 3 -9 11 -13 18 -9 6 4 19 8 29
9 9 1 22 2 27 3 6 0 10 9 10 19 0 14 2 15 10 2 8 -12 10 -12 10 -1 0 9 7 11
21 8 14 -4 19 -2 15 8 -3 9 3 12 20 10 19 -2 24 1 19 13 -4 12 0 11 16 -4 l22
-19 -13 24 c-6 13 -7 21 -2 17 6 -3 12 -3 15 1 2 5 2 3 1 -4 -2 -7 3 -10 11
-6 8 3 12 9 9 14 -3 5 2 10 10 10 37 3 41 5 38 22 -3 15 0 17 17 8 17 -9 19
-8 16 14 -2 21 0 23 12 13 11 -9 13 -8 11 3 -2 8 4 13 15 13 15 -2 16 1 5 14
-11 13 -10 15 4 9 12 -4 16 -1 13 13 -2 11 1 23 7 26 7 4 8 2 4 -4 -11 -19 9
-14 27 6 20 22 22 33 5 44 -9 6 -6 7 9 3 18 -5 21 -3 15 17 -5 20 -3 21 10 11
12 -11 14 -9 14 10 -1 12 4 21 11 20 9 -2 10 4 3 22 -9 23 -8 25 10 15 16 -9
19 -8 13 6 -5 13 -3 15 7 9 8 -5 11 -4 6 3 -4 6 -14 8 -24 5 -16 -6 -16 -6 1
11 9 10 14 22 11 28 -4 7 -2 8 4 4 7 -4 12 -3 12 3 0 5 -6 12 -12 14 -8 3 -5
6 5 6 10 1 15 6 12 11 -4 6 -12 7 -18 4 -9 -5 -9 -3 0 6 10 11 15 11 30 -1 16
-12 17 -12 6 2 -7 9 -10 19 -6 22 3 4 1 7 -5 7 -7 0 -12 5 -12 11 0 6 6 9 14
6 10 -4 12 0 8 15 -4 16 -2 19 8 13 8 -5 4 5 -8 22 -22 31 -21 46 4 36 10 -4
12 0 8 11 -3 9 -9 14 -13 12 -3 -2 -6 9 -6 25 -1 25 2 28 20 23 17 -6 17 -4
-5 15 -14 13 -19 20 -12 16 8 -4 11 1 8 17 -2 13 2 29 8 37 8 11 8 13 -1 8 -8
-5 -11 0 -10 13 1 11 4 20 7 20 3 0 11 10 19 23 14 22 14 22 -7 4 -20 -19 -20
-18 -17 25 1 24 -3 49 -9 57 -8 11 -8 13 2 7 7 -4 15 -1 18 8 3 9 11 13 17 9
6 -3 7 -1 3 5 -4 6 -13 9 -21 6 -15 -6 -15 20 0 33 4 4 5 2 1 -4 -10 -17 -1
-16 13 1 9 11 9 16 0 22 -8 5 -9 3 -4 -6 5 -8 4 -11 -2 -7 -5 3 -8 32 -6 64 3
42 1 54 -6 43 -7 -9 -11 -10 -11 -3 0 7 8 17 18 22 9 6 11 11 5 11 -7 0 -13 5
-13 11 0 5 4 8 9 4 5 -3 13 0 17 6 4 7 3 9 -3 6 -6 -4 -15 -1 -21 6 -11 14
-12 48 -1 41 5 -2 6 -11 2 -19 -3 -8 0 -15 5 -15 6 0 8 12 5 28 -3 15 -5 34
-6 42 0 8 -5 21 -11 29 -5 7 -10 23 -11 35 0 20 -4 21 -118 21 -65 0 -119 -1
-120 -2z m44 -97 c5 3 9 -1 9 -8 0 -9 3 -9 10 2 7 12 12 12 22 2 6 -6 19 -12
28 -11 10 0 9 3 -5 9 -12 5 -14 9 -6 9 8 1 23 -7 34 -16 19 -18 20 -17 8 7
-11 22 -10 23 2 8 10 -13 13 -49 11 -155 -7 -355 -17 -500 -40 -583 -40 -142
-145 -270 -275 -334 -75 -37 -201 -70 -207 -55 -2 5 -11 5 -20 0 -9 -5 -26 -7
-37 -5 -11 2 -39 6 -63 9 -24 3 -69 14 -100 25 -31 11 -58 20 -60 20 -2 0 0 5
4 12 4 7 3 8 -4 4 -12 -7 -55 17 -87 49 l-20 21 15 -21 c12 -16 9 -15 -13 4
-15 14 -27 32 -27 40 0 13 -2 13 -9 2 -6 -10 -12 -5 -22 17 -7 17 -18 28 -24
24 -5 -3 -3 3 5 13 8 10 10 16 5 13 -6 -4 -15 -4 -20 0 -15 11 -59 76 -46 68
6 -4 11 -2 11 3 0 6 -4 11 -8 11 -5 0 -16 16 -25 36 -10 19 -13 33 -7 29 5 -3
10 -1 10 4 0 6 -5 11 -11 11 -5 0 -7 4 -4 10 11 18 14 51 4 45 -5 -4 -7 -10
-4 -15 3 -5 2 -11 -3 -14 -4 -2 -8 5 -9 17 -1 12 -3 32 -6 44 -4 17 -2 21 11
17 15 -5 15 -4 2 8 -16 13 -15 45 1 62 12 13 11 26 -2 26 -5 0 -8 -4 -5 -8 3
-5 -2 -9 -11 -9 -12 0 -11 5 7 19 21 17 19 23 -5 18 -5 -1 -1 8 9 19 12 13 14
21 7 21 -7 0 1 14 18 32 27 29 28 34 15 52 -18 26 -19 46 -1 21 16 -20 34 -4
20 18 -11 18 -13 38 -2 31 5 -3 6 -10 3 -16 -5 -7 -2 -8 5 -3 7 4 11 18 9 30
-4 18 -1 22 10 17 10 -3 13 -1 8 7 -4 7 -3 10 5 9 6 -2 14 3 17 11 3 9 0 11
-9 6 -8 -5 -6 0 4 12 9 11 14 23 10 28 -5 4 -2 5 5 1 11 -6 11 -11 0 -23 -12
-15 -11 -15 9 -3 16 10 19 18 12 26 -7 8 -6 15 2 20 7 4 9 3 6 -3 -4 -6 0 -14
9 -17 8 -3 12 -2 9 4 -6 10 41 60 57 60 5 0 6 4 3 10 -4 6 1 7 11 3 14 -5 16
-3 11 12 -7 16 -5 16 10 4 15 -12 16 -12 9 6 -4 11 -4 16 0 12 4 -4 16 0 26
10 10 9 18 13 18 9 0 -4 6 -4 13 1 17 11 31 10 39 -2 4 -5 8 1 8 14 0 24 0 24
16 5 8 -10 13 -14 10 -7 -4 6 -2 14 4 18 5 3 10 1 10 -4 0 -6 5 -11 11 -11 5
0 7 5 3 11 -4 7 2 6 17 -2 23 -12 23 -11 9 6 -10 12 -10 16 -2 11 7 -4 20 -2
29 6 10 8 14 8 10 1 -4 -6 -3 -14 3 -18 5 -3 10 -1 10 5 0 8 11 9 32 4 31 -6
32 -6 18 12 -14 18 -14 18 5 3 11 -8 27 -15 35 -14 8 0 19 -4 23 -10 5 -6 6
-2 3 8 -5 15 -2 17 14 12 15 -5 20 -2 20 12 0 15 2 15 9 3 6 -8 7 -18 4 -24
-3 -5 -1 -6 6 -2 6 4 9 11 6 16 -3 4 2 11 11 14 8 3 12 2 9 -4 -3 -6 1 -10 10
-10 9 0 14 3 11 8 -2 4 9 8 25 8 16 1 27 -1 25 -5 -3 -4 6 -7 19 -7 13 0 21 4
19 8 -3 5 -11 5 -17 2 -7 -4 -9 -3 -4 1 9 10 57 14 51 4 -5 -9 23 -5 32 4 4 4
12 7 18 7 6 0 5 -4 -3 -9 -8 -5 -9 -11 -3 -15 6 -3 13 2 17 13 6 21 25 22 49
2 9 -8 19 -11 23 -7 3 3 1 6 -5 6 -7 0 -12 8 -11 18 0 10 3 12 6 4 2 -6 9 -10
14 -6z m-368 -31 c-3 -9 -8 -14 -10 -11 -3 3 -2 9 2 15 9 16 15 13 8 -4z
m-563 -380 c0 -1 -6 -8 -14 -15 -12 -9 -15 -8 -13 8 0 12 6 18 14 15 7 -3 13
-6 13 -8z m1010 -569 c0 -3 -4 -8 -10 -11 -5 -3 -10 -1 -10 4 0 6 5 11 10 11
6 0 10 -2 10 -4z m-355 -225 c3 -5 1 -12 -5 -16 -5 -3 -10 1 -10 9 0 18 6 21
15 7z m-29 -13 c3 -4 -1 -5 -10 -4 -8 1 -18 5 -22 8 -3 4 1 5 10 4 8 -1 18 -5
22 -8z"/>
<path d="M1315 1600 c-3 -5 -1 -10 4 -10 6 0 11 5 11 10 0 6 -2 10 -4 10 -3 0
-8 -4 -11 -10z"/>
<path d="M1130 1586 c0 -2 8 -10 18 -17 15 -13 16 -12 3 4 -13 16 -21 21 -21
13z"/>
<path d="M870 1551 c0 -6 4 -13 10 -16 6 -3 7 1 4 9 -7 18 -14 21 -14 7z"/>
<path d="M726 1522 c-3 -5 1 -9 9 -9 8 0 12 4 9 9 -3 4 -7 8 -9 8 -2 0 -6 -4
-9 -8z"/>
<path d="M690 1505 c-11 -13 -10 -14 4 -9 9 3 16 10 16 15 0 13 -6 11 -20 -6z"/>
<path d="M835 1370 c-157 -36 -268 -191 -252 -352 7 -67 30 -141 41 -131 5 4
7 1 4 -7 -2 -8 11 -29 29 -47 33 -34 43 -50 21 -37 -7 4 -8 3 -4 -5 4 -6 11
-9 16 -6 5 3 19 -4 30 -15 11 -11 24 -19 28 -16 10 6 32 -20 24 -29 -4 -3 6
-4 21 -1 18 3 30 -1 37 -12 8 -14 10 -14 10 -2 0 9 6 5 15 -10 l14 -25 1 23
c0 13 4 20 10 17 6 -4 8 -10 5 -15 -3 -5 0 -12 6 -16 8 -4 9 -3 5 4 -10 16 26
15 43 0 11 -11 13 -10 8 4 -5 15 -2 16 18 8 20 -8 25 -6 25 7 0 15 2 14 16 -3
8 -10 13 -13 9 -6 -7 15 6 16 23 2 6 -6 10 -7 7 -4 -3 4 1 14 8 23 11 14 10
15 -8 1 -19 -14 -19 -14 -6 2 7 10 17 16 21 13 5 -3 11 -1 15 5 4 7 14 6 28
-2 21 -10 21 -10 7 7 -14 17 -14 18 8 6 23 -12 23 -12 11 11 -11 21 -11 22 4
9 15 -12 17 -11 17 10 0 22 1 22 13 4 13 -17 14 -17 13 3 -1 12 2 20 5 19 3
-1 13 4 22 12 13 10 14 17 5 35 -10 18 -9 19 4 9 16 -14 15 -16 21 41 2 16 8
31 14 33 7 3 9 11 6 19 -3 7 -10 11 -17 7 -6 -3 -5 0 2 8 11 12 14 12 22 -1 6
-10 9 -5 8 18 -1 17 5 39 13 49 11 15 11 16 -1 6 -18 -17 -27 -16 -27 2 0 8 4
12 7 10 4 -3 7 11 7 29 -1 19 -5 33 -9 30 -4 -3 -5 -11 -2 -18 3 -8 2 -16 -3
-19 -4 -3 -8 8 -8 24 -1 16 4 29 10 29 5 0 3 4 -5 9 -8 6 -18 7 -24 4 -5 -3
-6 -1 -2 5 3 6 2 14 -4 17 -8 5 -7 11 1 21 9 11 9 14 0 14 -7 0 -9 5 -5 12 4
6 3 8 -4 4 -16 -10 -27 15 -11 26 12 8 11 9 -1 5 -16 -5 -43 17 -33 27 4 3 -1
6 -11 6 -9 0 -19 6 -22 14 -3 8 -19 20 -35 26 -16 7 -29 15 -29 19 0 4 -26 14
-57 23 -60 17 -125 20 -178 8z m91 -92 c4 -7 3 -8 -4 -4 -7 4 -12 2 -12 -3 0
-13 17 -14 24 -2 3 5 17 11 30 13 24 5 28 -5 11 -32 -5 -9 0 -8 13 4 20 17 22
17 28 2 3 -9 10 -16 16 -16 5 0 6 6 3 13 -4 6 1 3 9 -7 9 -11 19 -17 22 -13 4
4 18 -8 32 -26 102 -135 66 -308 -80 -381 -57 -29 -158 -37 -158 -13 0 9 -3 8
-9 -2 -6 -9 -11 -10 -15 -2 -4 6 -12 9 -17 6 -5 -4 -9 -1 -9 4 0 6 -7 11 -15
11 -9 0 -18 7 -21 15 -3 8 -14 17 -25 20 -10 4 -19 13 -19 21 0 8 -5 14 -11
14 -5 0 -7 5 -4 10 3 6 1 10 -4 10 -6 0 -11 10 -11 23 0 18 -2 19 -10 7 -5 -8
-10 -10 -10 -4 0 5 5 15 12 22 9 9 8 12 -6 12 -9 0 -14 5 -11 10 4 6 10 8 14
6 11 -7 5 53 -7 67 -7 8 -6 18 4 31 7 10 11 23 8 27 -2 4 5 6 17 4 12 -2 19
-2 15 2 -3 3 -1 12 4 19 8 8 5 17 -7 30 -17 17 -17 17 0 11 9 -3 17 -2 17 4 0
6 5 7 10 4 6 -4 7 -11 4 -17 -4 -7 -2 -8 4 -4 8 5 8 15 2 34 -9 24 -9 25 4 9
12 -16 14 -16 20 -1 3 9 3 20 0 26 -4 7 0 6 13 0 13 -7 24 -7 34 0 11 8 10 9
-6 4 -19 -6 -19 -5 -3 7 10 8 16 16 13 18 -2 3 5 5 15 5 13 0 16 -4 10 -10 -6
-6 -10 -14 -10 -20 0 -5 9 1 20 14 13 15 20 18 20 9 1 -10 4 -9 11 4 12 20 15
21 25 5z m-196 -124 c0 -8 -19 -13 -24 -6 -3 5 1 9 9 9 8 0 15 -2 15 -3z m521
-157 c-10 -9 -11 -8 -5 6 3 10 9 15 12 12 3 -3 0 -11 -7 -18z m-41 -161 c0 -3
-4 -8 -10 -11 -5 -3 -10 -1 -10 4 0 6 5 11 10 11 6 0 10 -2 10 -4z"/>
<path d="M689 1083 c-13 -17 -13 -17 6 -3 11 8 22 16 24 17 2 2 0 3 -6 3 -6 0
-17 -8 -24 -17z"/>
<path d="M1224 1172 c4 -3 14 -7 22 -8 9 -1 13 0 10 4 -4 3 -14 7 -22 8 -9 1
-13 0 -10 -4z"/>
<path d="M435 831 c-3 -5 -2 -12 3 -15 5 -3 9 1 9 9 0 17 -3 19 -12 6z"/>
<path d="M1075 730 c-3 -5 -1 -10 4 -10 6 0 11 5 11 10 0 6 -2 10 -4 10 -3 0
-8 -4 -11 -10z"/>
<path d="M1575 1670 c3 -5 8 -10 11 -10 2 0 4 5 4 10 0 6 -5 10 -11 10 -5 0
-7 -4 -4 -10z"/>
<path d="M1589 1301 c8 -5 9 -11 3 -15 -6 -3 -10 -15 -9 -26 1 -10 5 -17 9
-14 4 3 5 11 2 18 -3 8 0 17 5 21 13 8 5 25 -12 25 -8 0 -8 -3 2 -9z"/>
<path d="M1583 1135 c0 -8 4 -12 9 -9 5 3 6 10 3 15 -9 13 -12 11 -12 -6z"/>
<path d="M325 462 c-54 -8 -68 -15 -105 -48 -60 -55 -80 -146 -45 -213 8 -17
16 -34 16 -38 0 -5 7 -12 15 -16 8 -5 12 -12 9 -18 -3 -5 1 -6 9 -3 9 4 18 -1
22 -10 3 -9 12 -16 20 -16 8 0 14 -8 15 -17 0 -15 2 -15 9 2 8 19 11 18 14 -4
0 -5 5 -13 10 -18 5 -4 6 -3 3 3 -4 7 0 15 9 18 9 4 13 2 8 -5 -4 -8 1 -9 16
-4 13 4 20 3 17 -2 -4 -5 0 -10 8 -10 8 0 12 4 9 9 -3 4 1 8 10 8 8 0 17 6 20
13 3 6 3 1 0 -13 l-5 -25 19 24 c11 13 24 21 30 17 6 -3 13 -2 17 4 4 6 11 7
17 4 5 -4 4 4 -3 17 -11 21 -10 23 3 11 13 -10 18 -9 28 3 11 13 10 18 -1 28
-8 7 -12 11 -10 10 2 -2 11 3 19 10 13 10 14 9 7 -3 -7 -13 -6 -13 6 -1 12 12
12 14 0 19 -10 3 -7 8 10 18 13 7 18 13 12 14 -7 0 -13 8 -13 18 0 15 -2 15
-11 2 -9 -12 -10 -12 -5 3 3 10 6 21 6 23 0 3 4 2 10 -1 6 -4 7 1 3 11 -4 12
-3 15 5 10 18 -11 14 0 -5 15 -9 8 -14 9 -10 3 3 -6 0 -11 -8 -11 -8 0 -12 4
-9 9 7 12 -16 68 -27 68 -5 0 -9 7 -9 15 0 8 -4 15 -9 15 -5 0 -16 6 -23 13
-30 28 -91 46 -133 39z m62 -106 c24 -5 30 -11 26 -23 -4 -10 -2 -14 4 -10 13
8 23 -15 23 -54 0 -39 -46 -89 -85 -90 -55 -3 -67 0 -62 15 4 10 1 13 -7 10
-7 -3 -16 2 -20 11 -3 9 -2 13 4 10 6 -3 7 1 4 10 -4 8 0 22 7 31 7 8 8 14 3
13 -23 -4 -26 2 -8 17 10 8 13 13 7 9 -7 -3 -13 -2 -13 3 0 17 13 22 28 9 13
-11 14 -9 2 13 -13 24 -12 24 5 10 11 -9 16 -10 11 -2 -16 27 5 33 71 18z
m133 -210 c0 -3 -4 -8 -10 -11 -5 -3 -10 -1 -10 4 0 6 5 11 10 11 6 0 10 -2
10 -4z"/>
<path d="M353 345 c0 -8 4 -12 9 -9 5 3 6 10 3 15 -9 13 -12 11 -12 -6z"/>
<path d="M620 461 c0 -6 4 -13 10 -16 6 -3 7 1 4 9 -7 18 -14 21 -14 7z"/>
</g>
</svg>
