<?xml version="1.0" standalone="no"?>
<!DOCTYPE svg PUBLIC "-//W3C//DTD SVG 20010904//EN"
 "http://www.w3.org/TR/2001/REC-SVG-20010904/DTD/svg10.dtd">
<svg version="1.0" xmlns="http://www.w3.org/2000/svg"
 width="290.000000pt" height="290.000000pt" viewBox="0 0 290.000000 290.000000"
 preserveAspectRatio="xMidYMid meet">
<metadata>
Created by potrace 1.14, written by Peter Selinger 2001-2017
</metadata>
<g transform="translate(0.000000,290.000000) scale(0.100000,-0.100000)"
fill="#000000" stroke="none">
<path d="M2220 2882 c-14 -9 -28 -21 -32 -27 -4 -5 -8 -6 -8 -2 0 5 -7 1 -16
-7 -8 -9 -19 -14 -23 -11 -5 2 -13 -7 -20 -21 -6 -14 -15 -23 -19 -20 -4 2 -9
-5 -9 -16 -1 -12 -7 -24 -14 -28 -6 -4 -9 -12 -5 -18 3 -6 2 -13 -3 -17 -6 -3
-8 -12 -4 -20 3 -8 1 -15 -3 -15 -5 0 -10 -16 -11 -35 -1 -19 1 -35 5 -35 4 0
8 -15 9 -34 4 -51 53 -126 84 -126 5 0 8 -4 5 -9 -5 -7 12 -20 34 -25 3 -1 16
-8 29 -15 20 -11 22 -11 15 1 -6 10 -4 10 9 -1 20 -16 117 -23 117 -8 0 5 11
6 25 3 14 -4 25 -2 25 3 0 5 13 14 30 21 16 7 27 16 24 21 -3 5 2 9 11 9 8 0
18 7 21 15 4 8 11 12 17 8 5 -3 7 -1 3 5 -3 6 -1 14 5 17 5 4 8 14 5 22 -3 8
-2 12 3 9 10 -7 29 34 25 57 -1 9 2 17 7 17 11 0 7 23 -6 32 -6 5 -5 8 3 8 7
0 10 5 7 11 -7 11 -18 63 -19 91 0 9 -5 16 -11 15 -5 -1 -9 3 -8 9 1 7 -10 25
-26 40 -37 38 -71 65 -71 58 0 -4 -7 -1 -15 6 -8 7 -15 9 -15 6 0 -4 -7 0 -16
8 -22 22 -130 21 -164 -2z m136 -93 c6 -5 14 -6 17 -2 4 3 7 1 7 -6 0 -7 5 -9
10 -6 6 3 13 -1 16 -9 3 -9 13 -16 20 -16 31 0 56 -138 31 -169 -9 -12 -9 -13
0 -7 7 4 5 -6 -4 -23 -10 -16 -20 -29 -23 -29 -19 2 -30 -3 -26 -11 5 -7 -16
-21 -34 -23 -3 0 -12 -4 -21 -9 -10 -5 -20 -4 -27 3 -9 9 -12 9 -12 -1 0 -9
-6 -11 -17 -6 -16 6 -36 12 -53 14 -12 2 -59 49 -62 62 -2 7 -10 20 -18 27
-13 12 -13 13 0 6 13 -6 13 -4 -1 12 -25 30 -3 134 24 117 6 -4 8 0 4 11 -8
21 25 56 53 56 11 0 20 4 20 9 0 19 71 19 96 0z"/>
<path d="M2078 2337 c-7 -8 -19 -12 -26 -9 -6 2 -12 -2 -12 -9 0 -7 -3 -10 -6
-6 -3 3 -14 -3 -25 -14 -10 -10 -26 -19 -35 -19 -8 0 -12 -4 -9 -10 3 -5 1
-10 -6 -10 -7 0 -10 -3 -6 -6 3 -4 0 -13 -8 -21 -13 -13 -21 -51 -15 -78 1 -5
2 -22 2 -37 1 -15 5 -28 10 -28 5 0 7 -4 3 -9 -3 -5 -1 -12 5 -16 6 -4 7 -12
4 -18 -4 -7 -4 -9 1 -5 4 4 21 -7 36 -23 16 -17 29 -28 29 -24 0 5 9 0 20 -10
11 -10 20 -15 20 -12 0 4 11 2 25 -3 18 -7 25 -6 25 3 0 8 4 7 10 -3 5 -8 10
-10 10 -4 0 6 11 12 25 12 14 0 34 10 45 22 11 13 20 20 20 17 0 -14 42 29 52
53 14 35 19 123 7 131 -5 3 -11 16 -12 29 -1 22 -49 76 -60 69 -4 -2 -12 4
-19 13 -7 9 -27 19 -45 21 -17 3 -36 8 -42 11 -5 3 -15 0 -23 -7z m72 -110 c0
-4 5 -5 10 -2 6 3 10 1 10 -5 0 -6 4 -9 9 -6 16 10 10 -106 -7 -123 -8 -9 -17
-15 -19 -13 -9 6 -23 1 -18 -7 3 -6 -6 -6 -24 -1 -16 4 -31 6 -34 4 -10 -10
-48 47 -49 72 -1 39 11 76 23 69 5 -4 9 -2 9 4 0 5 8 12 18 14 27 7 72 4 72
-6z"/>
<path d="M1824 1925 c-4 -8 -10 -13 -14 -10 -12 7 -60 -39 -60 -58 0 -8 -5
-17 -11 -19 -5 -2 -10 -27 -11 -56 0 -78 52 -149 106 -143 13 2 16 -1 10 -11
-6 -10 -5 -11 7 -1 12 10 18 10 27 1 9 -9 12 -9 12 0 0 7 5 12 11 12 5 0 7 -5
3 -12 -5 -7 -3 -8 7 -2 8 4 22 10 32 11 27 4 67 34 67 49 0 8 4 14 8 14 14 0
33 63 21 71 -8 5 -8 9 0 14 9 5 9 11 -1 22 -7 9 -12 18 -10 20 13 18 -34 83
-61 83 -8 0 -17 5 -19 11 -5 15 -90 19 -107 5 -11 -8 -13 -8 -7 2 4 6 5 12 1
12 -3 0 -8 -7 -11 -15z m86 -88 c0 4 9 -3 20 -15 19 -20 26 -87 8 -76 -4 3 -8
-1 -8 -9 0 -16 -53 -31 -58 -16 -2 5 -7 7 -11 5 -15 -9 -32 12 -33 40 -1 53 2
64 17 64 8 0 15 4 15 10 0 6 9 6 25 0 14 -5 25 -7 25 -3z"/>
<path d="M1430 1579 c0 -3 -20 -6 -45 -5 -25 1 -45 -1 -45 -5 0 -3 -18 -5 -40
-4 -22 1 -40 -1 -40 -4 0 -3 -10 -6 -22 -7 -21 0 -87 -8 -160 -18 -16 -2 -28
1 -28 7 0 5 -7 4 -15 -3 -8 -7 -22 -10 -30 -6 -8 3 -15 2 -15 -3 0 -4 -21 -8
-47 -10 -74 -3 -78 -3 -85 -15 -5 -7 -8 -6 -8 3 0 11 -3 11 -17 0 -9 -8 -18
-13 -20 -11 -5 4 -55 -10 -93 -26 -19 -9 -38 -15 -42 -14 -5 1 -8 -3 -8 -8 0
-6 -20 -19 -45 -30 -25 -11 -45 -24 -45 -30 0 -6 -5 -8 -10 -5 -6 3 -13 -1
-16 -9 -3 -9 -10 -14 -14 -11 -5 3 -12 -4 -15 -16 -4 -11 -9 -18 -13 -15 -7 8
-80 -72 -88 -96 -3 -10 -10 -15 -16 -12 -6 4 -8 2 -4 -4 3 -6 1 -16 -6 -24
-23 -23 -68 -115 -68 -137 0 -11 -5 -21 -12 -21 -6 0 -9 -3 -5 -6 3 -4 0 -22
-8 -41 -9 -21 -10 -31 -3 -27 8 5 9 2 2 -12 -5 -10 -8 -75 -7 -144 2 -154 5
-193 17 -202 5 -3 10 -14 11 -25 1 -10 7 -28 13 -40 7 -13 9 -23 5 -23 -4 0 1
-6 11 -13 9 -7 18 -22 19 -34 0 -12 4 -20 8 -17 4 2 12 -10 18 -26 5 -17 15
-30 20 -30 6 0 11 -5 11 -11 0 -6 18 -28 40 -49 22 -21 40 -43 40 -49 0 -6 8
-11 18 -11 10 0 24 -9 32 -19 7 -11 17 -18 22 -15 4 3 8 0 8 -7 0 -16 31 -38
53 -39 9 0 17 -5 17 -11 0 -5 4 -8 9 -5 5 4 11 1 13 -4 2 -6 11 -12 20 -13 9
-2 22 -8 29 -14 8 -6 30 -14 49 -18 19 -4 40 -10 45 -14 6 -3 21 -7 35 -8 14
-1 36 -4 50 -8 40 -10 104 -12 122 -3 10 5 19 4 23 -2 4 -6 12 -7 18 -3 7 4
21 8 32 9 11 1 29 4 40 7 11 2 37 7 58 11 20 4 37 12 37 18 0 7 5 6 15 -2 8
-7 15 -8 15 -3 0 5 18 18 40 29 22 10 40 23 40 27 0 5 4 6 9 3 4 -3 19 3 31
14 12 11 31 22 41 25 11 4 17 11 14 16 -6 8 8 13 28 10 4 0 7 3 7 9 0 5 26 34
57 65 31 30 53 55 48 55 -4 0 -1 8 8 18 10 10 14 22 10 25 -3 4 2 7 12 7 10 0
16 3 13 6 -4 3 0 17 7 31 8 15 12 30 10 34 -3 4 2 10 11 13 8 3 13 10 9 15 -3
5 -1 12 5 16 6 4 8 11 5 16 -4 5 -2 9 3 9 5 0 9 6 10 13 4 58 12 91 24 98 10
7 10 9 0 9 -7 0 -11 3 -9 8 3 4 7 43 9 87 1 44 8 83 13 87 6 5 5 8 -2 8 -7 0
-13 5 -13 11 0 5 3 8 8 6 12 -8 11 47 -1 62 -9 12 -9 13 1 7 8 -5 12 2 13 26
0 18 2 99 3 179 1 80 6 151 11 159 6 9 4 11 -5 5 -9 -5 -11 -4 -6 4 12 19 15
80 5 87 -6 3 -6 11 1 19 8 9 8 15 0 20 -6 3 -7 12 -3 18 12 20 12 37 0 37 -7
0 -5 5 3 10 10 6 11 10 3 10 -7 0 -13 9 -13 19 0 18 -7 19 -109 16 -60 -1
-114 -6 -120 -9 -6 -4 -11 -4 -11 1 0 4 -13 8 -30 8 -16 0 -30 -3 -30 -6z
m179 -91 c11 -11 12 -10 6 2 -8 13 -7 13 9 1 9 -8 15 -20 12 -28 -3 -7 -1 -13
3 -13 5 0 8 -8 6 -17 -2 -10 -4 -18 -5 -18 -1 0 -3 -15 -4 -32 -1 -18 1 -33 6
-33 5 0 6 -6 1 -12 -4 -7 -8 -94 -9 -193 -3 -263 -8 -394 -14 -390 -3 2 -6
-11 -6 -28 -2 -40 -7 -69 -17 -84 -4 -6 -8 -23 -9 -37 -1 -14 -6 -26 -10 -26
-4 0 -8 -9 -8 -20 0 -11 -9 -29 -21 -41 -11 -11 -18 -23 -15 -26 3 -3 0 -11
-7 -18 -29 -30 -47 -56 -47 -66 0 -5 -4 -7 -10 -4 -5 3 -10 1 -10 -4 0 -14
-82 -91 -97 -91 -6 0 -13 -4 -15 -8 -6 -14 -66 -52 -82 -52 -9 0 -16 -4 -16
-9 0 -8 -56 -25 -72 -22 -5 0 -8 -4 -8 -9 0 -6 -5 -10 -11 -10 -5 0 -7 5 -3
12 4 6 -3 4 -16 -5 -17 -12 -28 -14 -43 -6 -14 8 -18 8 -13 0 8 -12 -17 -15
-94 -11 -108 6 -153 15 -187 37 -13 9 -23 12 -23 9 0 -8 -75 29 -111 55 -14
10 -29 16 -33 12 -3 -3 -6 2 -6 11 0 12 -5 16 -15 12 -8 -3 -15 -1 -15 5 0 11
-25 39 -35 39 -4 0 -13 7 -21 15 -9 8 -12 15 -7 15 4 0 -4 11 -20 24 -15 13
-27 28 -27 35 0 6 -4 11 -10 11 -5 0 -10 9 -10 21 0 11 -4 17 -10 14 -5 -3
-10 0 -10 8 0 8 -7 27 -14 43 -8 15 -13 31 -10 36 3 4 1 8 -4 8 -9 0 -15 14
-29 70 -2 8 -5 31 -7 50 -2 19 -5 36 -6 38 -6 6 -6 28 1 43 5 9 3 21 -4 28 -8
8 -8 14 -2 19 6 4 11 25 12 47 3 75 7 105 15 105 4 0 8 9 8 20 0 11 5 20 10
20 6 0 10 9 10 20 0 11 4 20 10 20 5 0 9 3 8 8 -4 14 14 52 24 52 6 0 9 3 5 6
-11 11 123 153 171 180 17 10 32 22 32 27 0 4 5 5 10 2 6 -3 10 -1 10 6 0 7 3
10 6 6 4 -3 13 1 21 9 8 8 19 12 24 9 5 -4 9 -2 9 2 0 5 12 10 28 11 15 1 29
7 30 12 2 6 7 8 11 5 5 -2 31 -1 59 4 34 5 55 4 63 -3 9 -8 10 -7 4 3 -6 11
-3 13 13 9 12 -4 22 -3 22 1 0 5 22 8 49 7 27 -1 47 2 44 7 -2 4 2 7 9 8 47 4
129 10 166 11 23 1 42 7 42 12 0 6 5 4 10 -4 5 -8 10 -10 10 -5 0 6 15 11 33
11 17 1 55 3 83 4 28 2 56 0 64 -5 9 -5 11 -4 6 4 -6 8 5 11 38 8 24 -2 43 0
40 5 -8 13 11 9 25 -4z"/>
<path d="M1007 1204 c-1 -1 -26 -4 -55 -7 -55 -6 -179 -59 -199 -86 -6 -9 -17
-16 -25 -16 -7 0 -13 -6 -13 -13 0 -8 -7 -19 -15 -25 -8 -7 -16 -18 -18 -26
-1 -7 -9 -20 -17 -28 -8 -8 -15 -23 -15 -34 0 -10 -4 -19 -8 -19 -8 0 -13 -35
-13 -83 0 -10 -5 -15 -11 -11 -7 5 -8 2 -3 -6 5 -8 10 -40 11 -72 2 -32 8 -66
13 -77 6 -10 7 -21 4 -25 -3 -3 -1 -6 6 -6 7 0 9 -4 6 -10 -3 -5 -2 -10 2 -10
5 0 14 -9 21 -21 11 -17 11 -20 0 -14 -7 3 -4 -1 7 -10 11 -9 19 -21 17 -26
-1 -5 4 -9 11 -9 7 0 21 -11 31 -25 10 -14 23 -25 28 -25 5 0 16 -7 25 -15 8
-8 19 -13 24 -10 5 4 9 2 9 -4 0 -8 29 -23 50 -26 3 0 10 -3 15 -6 6 -4 20 -5
33 -4 12 1 22 -1 22 -4 0 -3 24 -6 54 -6 30 0 52 4 48 9 -3 5 2 7 10 3 9 -3
27 1 42 8 19 10 25 11 20 2 -4 -7 3 -2 15 11 13 13 28 21 34 19 6 -2 17 1 24
7 45 37 138 136 128 136 -3 0 2 11 11 25 9 14 13 25 10 25 -4 0 0 12 8 28 17
32 20 192 4 192 -6 0 -8 9 -5 20 3 11 1 20 -3 20 -5 0 -11 14 -15 30 -4 17
-11 30 -16 30 -5 0 -9 7 -9 15 0 9 -7 18 -15 21 -8 4 -13 9 -11 13 4 6 -25 37
-34 35 -3 0 -13 10 -23 22 -9 12 -39 30 -65 40 -26 10 -52 22 -59 27 -7 5 -17
6 -23 2 -5 -3 -10 -2 -10 3 0 8 -55 23 -63 16z m93 -127 c0 -4 4 -6 10 -2 12
7 51 -31 42 -41 -4 -4 1 -4 11 -1 9 4 17 2 17 -4 0 -6 4 -8 9 -5 5 3 12 -1 15
-10 3 -9 11 -12 18 -8 7 5 9 2 5 -8 -3 -9 0 -21 6 -27 6 -6 8 -11 3 -11 -4 0
0 -7 8 -16 9 -8 14 -19 11 -24 -3 -5 -1 -10 5 -12 8 -3 16 -119 10 -140 -1 -5
-3 -11 -4 -15 -1 -5 -5 -14 -10 -22 -7 -11 -6 -12 5 -6 8 5 7 0 -4 -12 -9 -11
-14 -23 -11 -26 4 -4 -1 -9 -10 -13 -9 -3 -16 -15 -16 -27 0 -11 -3 -17 -7
-14 -3 4 -12 -2 -20 -13 -8 -11 -21 -20 -29 -20 -8 0 -14 -5 -14 -12 0 -6 -3
-8 -7 -5 -3 4 -13 1 -21 -5 -13 -12 -32 -18 -59 -20 -7 -1 -13 -4 -13 -7 0 -4
-25 -7 -55 -8 -31 -1 -53 2 -50 7 3 4 -3 6 -14 3 -10 -3 -22 0 -25 6 -4 5 -13
8 -21 4 -8 -3 -15 0 -15 7 0 6 -4 9 -9 6 -5 -3 -12 1 -15 10 -4 9 -9 14 -12
11 -3 -3 -16 5 -29 18 -12 14 -25 22 -28 18 -4 -3 -7 1 -7 10 0 9 -4 17 -10
17 -5 0 -10 11 -10 25 0 14 -4 25 -10 25 -5 0 -10 9 -10 19 0 11 -5 23 -11 26
-12 8 -10 145 3 145 5 0 7 4 3 9 -3 5 1 16 9 24 8 8 12 17 9 21 -4 3 -1 6 6 6
7 0 9 5 6 10 -3 6 -1 10 6 10 7 0 10 3 7 6 -8 7 35 51 45 47 4 -2 7 1 7 8 0 7
3 10 6 7 3 -3 17 5 31 18 14 13 35 24 47 23 25 0 110 11 114 15 6 6 82 -19 82
-27z"/>
</g>
</svg>
